<svg width="168" height="24" viewBox="0 0 168 24" fill="none" xmlns="http://www.w3.org/2000/svg">
<path d="M10.224 23.288C8.304 23.288 6.608 22.9253 5.136 22.2C3.68533 21.4533 2.544 20.3333 1.712 18.84C0.88 17.3467 0.464 15.4587 0.464 13.176C0.464 11.32 0.730667 9.60267 1.264 8.024C1.79733 6.44533 2.56533 5.06933 3.568 3.896C4.592 2.72267 5.81867 1.80533 7.248 1.144C8.69867 0.482665 10.32 0.151999 12.112 0.151999C13.456 0.151999 14.704 0.354665 15.856 0.759998C17.0293 1.144 18.0427 1.70933 18.896 2.456C19.152 2.66933 19.312 2.904 19.376 3.16C19.44 3.416 19.4293 3.66133 19.344 3.896C19.2587 4.13067 19.12 4.33333 18.928 4.504C18.7573 4.67467 18.5547 4.77067 18.32 4.792C18.0853 4.792 17.84 4.696 17.584 4.504C16.752 3.8 15.888 3.29867 14.992 3C14.096 2.70133 13.104 2.552 12.016 2.552C10.2027 2.552 8.64533 3.01067 7.344 3.928C6.04267 4.84533 5.04 6.104 4.336 7.704C3.632 9.28267 3.28 11.0853 3.28 13.112C3.28 14.9467 3.568 16.44 4.144 17.592C4.72 18.744 5.54133 19.5867 6.608 20.12C7.67467 20.632 8.96533 20.888 10.48 20.888C11.4613 20.888 12.3787 20.7493 13.232 20.472C14.0853 20.1733 14.9387 19.6933 15.792 19.032C16.0693 18.84 16.3253 18.7547 16.56 18.776C16.816 18.7973 17.0293 18.8933 17.2 19.064C17.3707 19.2133 17.488 19.4053 17.552 19.64C17.616 19.8533 17.6053 20.088 17.52 20.344C17.4347 20.6 17.264 20.824 17.008 21.016C16.0267 21.784 14.96 22.36 13.808 22.744C12.656 23.1067 11.4613 23.288 10.224 23.288ZM30.651 23.288C28.7737 23.288 27.131 22.9147 25.723 22.168C24.3363 21.4213 23.2483 20.3227 22.459 18.872C21.691 17.4213 21.307 15.6613 21.307 13.592C21.307 11.6933 21.563 9.93333 22.075 8.312C22.587 6.66933 23.323 5.24 24.283 4.024C25.2643 2.808 26.459 1.85867 27.867 1.176C29.2963 0.493332 30.9283 0.151999 32.763 0.151999C34.6617 0.151999 36.3043 0.525332 37.691 1.272C39.099 2.01867 40.187 3.11733 40.955 4.568C41.723 5.99733 42.107 7.74667 42.107 9.816C42.107 11.736 41.851 13.5173 41.339 15.16C40.827 16.7813 40.0803 18.2 39.099 19.416C38.139 20.632 36.9443 21.5813 35.515 22.264C34.107 22.9467 32.4857 23.288 30.651 23.288ZM30.715 20.952C32.571 20.952 34.139 20.472 35.419 19.512C36.699 18.5307 37.6697 17.208 38.331 15.544C38.9923 13.8587 39.323 11.96 39.323 9.848C39.323 7.37333 38.7257 5.528 37.531 4.312C36.3577 3.096 34.7363 2.488 32.667 2.488C30.8323 2.488 29.275 2.97867 27.995 3.96C26.715 4.92 25.7443 6.232 25.083 7.896C24.4217 9.56 24.091 11.448 24.091 13.56C24.091 16.056 24.6777 17.912 25.851 19.128C27.0243 20.344 28.6457 20.952 30.715 20.952ZM46.3183 23.224C45.8703 23.224 45.5396 23.0853 45.3263 22.808C45.1343 22.5307 45.0809 22.136 45.1663 21.624L48.3663 1.56C48.4303 1.112 48.5796 0.781332 48.8143 0.567999C49.0703 0.333333 49.4116 0.216 49.8383 0.216C50.2863 0.216 50.6063 0.354666 50.7983 0.631998C50.9903 0.887999 51.0436 1.28267 50.9583 1.816L47.7583 21.88C47.6943 22.3067 47.5449 22.6373 47.3103 22.872C47.0969 23.1067 46.7663 23.224 46.3183 23.224ZM54.441 23.224C54.057 23.224 53.769 23.096 53.577 22.84C53.385 22.584 53.321 22.2213 53.385 21.752L56.617 1.368C56.7023 0.962665 56.8517 0.674665 57.065 0.504C57.2783 0.312 57.545 0.216 57.865 0.216C58.2063 0.216 58.4623 0.290666 58.633 0.439999C58.825 0.567998 59.0063 0.781331 59.177 1.08L69.993 19.8H69.321L72.233 1.432C72.297 1.00533 72.4463 0.696 72.681 0.504C72.9157 0.312 73.2357 0.216 73.641 0.216C74.025 0.216 74.3023 0.343999 74.473 0.599998C74.6437 0.855999 74.697 1.21867 74.633 1.688L71.401 22.04C71.337 22.424 71.209 22.7227 71.017 22.936C70.825 23.128 70.569 23.224 70.249 23.224C69.9077 23.224 69.6303 23.1493 69.417 23C69.225 22.8507 69.033 22.6267 68.841 22.328L58.025 3.64H58.697L55.785 22.008C55.7423 22.4133 55.6037 22.7227 55.369 22.936C55.1557 23.128 54.8463 23.224 54.441 23.224Z" fill="#F5C92D"/>
<path d="M86.6673 23C86.1766 23 85.8139 22.8613 85.5793 22.584C85.3446 22.3067 85.2593 21.9227 85.3233 21.432L88.4593 1.752C88.5233 1.304 88.6833 0.973331 88.9393 0.759998C89.2166 0.546665 89.5686 0.439999 89.9953 0.439999H97.2273C98.7846 0.439999 100.065 0.663999 101.067 1.112C102.091 1.53867 102.849 2.14667 103.339 2.936C103.83 3.72533 104.075 4.65333 104.075 5.72C104.075 7.40533 103.553 8.78133 102.507 9.848C101.483 10.8933 100.107 11.544 98.3793 11.8V11.32C99.8086 11.5547 100.929 12.12 101.739 13.016C102.55 13.912 102.955 15.0213 102.955 16.344C102.955 18.5413 102.262 20.2053 100.875 21.336C99.4886 22.4453 97.5259 23 94.9873 23H86.6673ZM87.9793 20.888H94.9873C96.7579 20.888 98.0913 20.4933 98.9873 19.704C99.8833 18.9147 100.331 17.7627 100.331 16.248C100.331 15.0533 99.9366 14.1573 99.1473 13.56C98.3579 12.9413 97.2273 12.632 95.7553 12.632H89.2913L87.9793 20.888ZM89.6433 10.52H96.0753C97.7393 10.52 99.0513 10.136 100.011 9.368C100.993 8.57867 101.483 7.448 101.483 5.976C101.483 4.86667 101.11 4.024 100.363 3.448C99.6166 2.85067 98.4539 2.552 96.8753 2.552H90.8913L89.6433 10.52ZM106.186 23.224C105.866 23.224 105.6 23.1493 105.386 23C105.173 22.8293 105.034 22.616 104.97 22.36C104.928 22.104 105.002 21.816 105.194 21.496L117.418 1.144C117.61 0.823999 117.824 0.589333 118.058 0.439999C118.314 0.290666 118.613 0.216 118.954 0.216C119.317 0.216 119.605 0.312 119.818 0.504C120.053 0.674665 120.224 0.930665 120.33 1.272L125.962 21.432C126.09 21.8373 126.122 22.1787 126.058 22.456C125.994 22.712 125.866 22.904 125.674 23.032C125.482 23.16 125.248 23.224 124.97 23.224C124.586 23.224 124.277 23.1173 124.042 22.904C123.829 22.6907 123.669 22.3813 123.562 21.976L122.154 16.696L123.178 17.24H109.546L110.858 16.728L107.53 22.392C107.381 22.6693 107.189 22.872 106.954 23C106.741 23.1493 106.485 23.224 106.186 23.224ZM118.57 3.512L111.562 15.48L110.858 15.032H122.57L121.834 15.512L118.634 3.512H118.57ZM137.535 23.288C136.575 23.288 135.626 23.2133 134.687 23.064C133.749 22.9147 132.853 22.68 131.999 22.36C131.146 22.04 130.367 21.6133 129.663 21.08C129.386 20.9093 129.205 20.7067 129.119 20.472C129.055 20.2373 129.045 20.0027 129.087 19.768C129.151 19.512 129.258 19.2987 129.407 19.128C129.578 18.9573 129.791 18.8613 130.047 18.84C130.303 18.8187 130.581 18.904 130.879 19.096C131.903 19.8 132.981 20.2907 134.111 20.568C135.263 20.824 136.479 20.952 137.759 20.952C139.487 20.952 140.874 20.6 141.919 19.896C142.965 19.1707 143.487 18.1893 143.487 16.952C143.487 16.0987 143.178 15.3733 142.559 14.776C141.941 14.1573 140.853 13.6773 139.295 13.336L135.999 12.536C134.506 12.1733 133.311 11.5547 132.415 10.68C131.519 9.80533 131.071 8.54667 131.071 6.904C131.071 5.88 131.285 4.952 131.711 4.12C132.159 3.288 132.767 2.584 133.535 2.008C134.303 1.41067 135.199 0.951999 136.223 0.631998C137.247 0.311998 138.335 0.151999 139.487 0.151999C140.725 0.151999 141.994 0.333332 143.295 0.695999C144.597 1.05867 145.738 1.656 146.719 2.488C146.954 2.65867 147.103 2.872 147.167 3.128C147.253 3.36267 147.263 3.59733 147.199 3.832C147.157 4.06667 147.05 4.25867 146.879 4.408C146.709 4.55733 146.495 4.64267 146.239 4.664C145.983 4.664 145.695 4.55733 145.375 4.344C144.543 3.68267 143.605 3.21333 142.559 2.936C141.535 2.63733 140.49 2.488 139.423 2.488C138.357 2.488 137.386 2.66933 136.511 3.032C135.637 3.37333 134.954 3.864 134.463 4.504C133.973 5.12267 133.727 5.86933 133.727 6.744C133.727 7.81067 133.994 8.61067 134.527 9.144C135.082 9.656 135.893 10.0507 136.959 10.328L140.287 11.096C142.293 11.5653 143.765 12.28 144.703 13.24C145.663 14.1787 146.143 15.32 146.143 16.664C146.143 17.7307 145.919 18.68 145.471 19.512C145.023 20.344 144.405 21.0373 143.615 21.592C142.826 22.1467 141.909 22.5733 140.863 22.872C139.839 23.1493 138.73 23.288 137.535 23.288ZM150.855 23C150.343 23 149.969 22.872 149.735 22.616C149.521 22.3387 149.447 21.944 149.511 21.432L152.647 1.752C152.711 1.304 152.871 0.973331 153.127 0.759998C153.404 0.546665 153.756 0.439999 154.183 0.439999H165.991C166.375 0.439999 166.663 0.514666 166.855 0.664C167.068 0.813332 167.175 1.02667 167.175 1.304C167.175 1.752 167.047 2.09333 166.791 2.328C166.556 2.54133 166.247 2.648 165.863 2.648H155.079L153.831 10.456H163.751C164.135 10.456 164.423 10.5307 164.615 10.68C164.807 10.8293 164.903 11.0427 164.903 11.32C164.903 11.768 164.775 12.1093 164.519 12.344C164.284 12.5573 163.985 12.664 163.623 12.664H153.479L152.167 20.792H162.759C163.143 20.792 163.431 20.8667 163.623 21.016C163.836 21.1653 163.943 21.3893 163.943 21.688C163.943 22.1147 163.815 22.4453 163.559 22.68C163.324 22.8933 163.015 23 162.631 23H150.855Z" fill="white"/>
</svg>
